<?xml version="1.0" standalone="no"?>
<!DOCTYPE svg PUBLIC "-//W3C//DTD SVG 20010904//EN"
 "http://www.w3.org/TR/2001/REC-SVG-20010904/DTD/svg10.dtd">
<svg version="1.0" xmlns="http://www.w3.org/2000/svg"
 width="500.000000pt" height="500.000000pt" viewBox="0 0 500.000000 500.000000"
 preserveAspectRatio="xMidYMid meet">

<g transform="translate(0.000000,500.000000) scale(0.100000,-0.100000)"
fill="#000000" stroke="none">
<path d="M0 2500 l0 -2500 2500 0 2500 0 0 2500 0 2500 -2500 0 -2500 0 0
-2500z m2015 632 c97 -75 225 -200 365 -357 39 -42 41 -47 15 -30 -16 10 -140
90 -275 178 l-245 158 -47 92 c-26 51 -47 95 -47 100 -2 18 133 -63 234 -141z
m462 -281 c27 -36 47 -76 32 -65 -115 86 -449 369 -449 381 0 6 405 -301 417
-316z m-393 52 c38 -19 407 -285 403 -290 -2 -1 -99 40 -215 93 l-211 96 -54
72 c-29 39 -56 76 -60 83 -7 11 65 -17 137 -54z m801 9 c76 -20 72 -27 -22
-37 -43 -5 -73 -2 -118 13 l-60 19 35 11 c51 15 86 14 165 -6z m435 8 c-22
-12 -292 -110 -306 -110 -6 0 -16 11 -22 25 -13 29 -29 23 178 64 164 33 171
34 150 21z m-617 -63 l28 -12 -87 -53 c-47 -29 -88 -51 -91 -49 -9 10 37 85
64 106 32 23 47 25 86 8z m104 -68 c-7 -25 15 -24 31 1 9 15 23 20 59 20 l47
0 -64 -65 c-35 -36 -67 -65 -71 -65 -7 0 -24 73 -17 77 1 1 -6 9 -17 16 -16
12 -17 17 -6 30 16 21 44 10 38 -14z m-234 -102 c7 4 40 27 75 51 35 24 64 43
66 41 2 -2 -25 -62 -59 -134 l-62 -130 -31 68 c-17 38 -53 94 -80 125 -72 85
-71 89 8 28 41 -32 77 -53 83 -49z m192 29 c19 -81 4 -125 -60 -170 -27 -20
-51 -33 -53 -31 -2 2 17 63 43 135 26 72 50 128 53 126 2 -3 10 -30 17 -60z
m269 52 c-5 -7 -31 -40 -59 -73 -31 -37 -62 -89 -80 -135 l-30 -75 -3 79 c-2
44 -1 85 2 92 4 11 163 124 174 124 2 0 0 -6 -4 -12z m-681 -143 c81 -37 146
-69 145 -71 -3 -2 -239 39 -295 51 -19 5 -47 39 -97 123 -4 7 16 2 46 -12 29
-13 120 -54 201 -91z m32 -94 l110 -17 -42 -13 c-57 -16 -159 2 -204 35 l-33
24 29 -5 c17 -3 80 -14 140 -24z m386 -47 l9 -46 -76 -83 c-51 -56 -90 -89
-117 -100 -107 -43 -142 -56 -137 -52 3 3 41 35 85 71 70 58 82 73 106 132 20
52 35 74 70 100 24 18 45 31 48 29 2 -2 7 -25 12 -51z m-178 -46 c-11 -40 -27
-68 -54 -94 l-39 -38 0 44 c0 40 5 50 52 97 28 29 53 51 54 50 2 -1 -4 -28
-13 -59z m-338 31 c22 -5 66 -12 97 -16 l56 -8 -83 -37 -84 -36 -31 54 c-35
62 -36 69 -12 59 9 -3 35 -11 57 -16z m201 -156 c-15 -16 -114 -29 -148 -20
-65 16 -56 33 50 86 l97 49 3 -55 c2 -31 1 -58 -2 -60z m-66 -103 c-40 -34
-55 -37 -64 -14 -8 21 -10 19 39 32 61 15 62 14 25 -18z"/>
</g>
</svg>
