<?xml version="1.0" standalone="no"?>
<!DOCTYPE svg PUBLIC "-//W3C//DTD SVG 20010904//EN"
 "http://www.w3.org/TR/2001/REC-SVG-20010904/DTD/svg10.dtd">
<svg version="1.0" xmlns="http://www.w3.org/2000/svg"
 width="90.000000pt" height="100.000000pt" viewBox="0 0 512.000000 512.000000"
 preserveAspectRatio="xMidYMid meet">

<g transform="translate(0.000000,512.000000) scale(0.100000,-0.100000)"
fill="#000000" stroke="none">
<path style="fill:#bcbac5" d="M2475 4913 c-821 -26 -1577 -495 -1984 -1230 -134 -244 -227 -531
-267 -828 -19 -143 -19 -447 0 -590 70 -523 286 -968 651 -1344 381 -392 873
-636 1414 -701 121 -14 421 -14 542 0 518 62 987 286 1363 650 396 385 641
876 706 1419 14 121 14 421 0 542 -90 753 -542 1425 -1205 1792 -366 202 -792
303 -1220 290z m415 -228 c759 -119 1393 -629 1674 -1346 100 -257 140 -476
140 -779 0 -237 -12 -337 -64 -543 -188 -740 -789 -1343 -1532 -1536 -973
-252 -1987 195 -2452 1082 -167 317 -241 623 -241 997 0 300 42 528 141 780
296 748 947 1250 1754 1356 134 17 437 11 580 -11z"/>
<path style="fill:#EE0E0E;" d="M2850 2787 c0 -765 1 -755 -63 -839 -47 -62 -113 -92 -210 -97 -44
-2 -98 2 -123 9 -92 26 -167 105 -182 191 l-8 44 -112 3 c-129 3 -124 9 -97
-106 20 -86 48 -136 112 -203 124 -130 343 -181 548 -129 140 36 242 115 300
234 63 128 65 151 65 907 l0 679 -115 0 -115 0 0 -693z"/>
</g>
</svg>
